<svg xmlns="http://www.w3.org/2000/svg" viewBox="0 0 1000 360" width="1000" height="360" preserveAspectRatio="xMidYMid slice" role="img"><title>Couverture excel</title><style>@media(prefers-reduced-motion:reduce){*{animation:none!important}}@keyframes swp{0%{transform:translateX(0)}46%{transform:translateX(1560px)}100%{transform:translateX(1560px)}}
.swp{animation:swp 10.5s cubic-bezier(.45,.05,.3,1) infinite}</style><defs><linearGradient id="bg" x1="0" y1="0" x2="0" y2="1"><stop offset="0" stop-color="#FDFCF9"/><stop offset="1" stop-color="#EFEBE1"/></linearGradient><radialGradient id="day" cx="0.22" cy="0.1" r="0.9"><stop offset="0" stop-color="#FFFFFF" stop-opacity="0.85"/><stop offset="1" stop-color="#FFFFFF" stop-opacity="0"/></radialGradient><linearGradient id="board" x1="0" y1="0" x2="1" y2="1"><stop offset="0" stop-color="#35A169"/><stop offset="0.55" stop-color="#107C41"/><stop offset="1" stop-color="#0A5231"/></linearGradient><linearGradient id="sol" gradientUnits="userSpaceOnUse" x1="0" y1="282" x2="0" y2="360"><stop offset="0" stop-color="#107C41" stop-opacity="0.97"/><stop offset="1" stop-color="#0A5231"/></linearGradient><linearGradient id="pan" x1="0" y1="0" x2="0" y2="1"><stop offset="0" stop-color="#FFFFFF"/><stop offset="1" stop-color="#F5F1E8"/></linearGradient><linearGradient id="acc" x1="0" y1="0" x2="0.25" y2="1"><stop offset="0" stop-color="#35A169"/><stop offset="1" stop-color="#107C41"/></linearGradient><linearGradient id="accV" x1="0" y1="0" x2="0" y2="1"><stop offset="0" stop-color="#35A169"/><stop offset="1" stop-color="#107C41"/></linearGradient><linearGradient id="orG" x1="0" y1="0" x2="1" y2="1"><stop offset="0" stop-color="#EED27A"/><stop offset="1" stop-color="#C9A227"/></linearGradient><linearGradient id="swp" x1="0" y1="0" x2="1" y2="0"><stop offset="0" stop-color="#FFFFFF" stop-opacity="0"/><stop offset="0.5" stop-color="#FFFFFF" stop-opacity="0.5"/><stop offset="1" stop-color="#FFFFFF" stop-opacity="0"/></linearGradient><filter id="oP" x="-40%" y="-40%" width="180%" height="200%"><feDropShadow dx="0" dy="14" stdDeviation="13" flood-color="#063D24" flood-opacity="0.22"/></filter><filter id="oC" x="-40%" y="-40%" width="180%" height="200%"><feDropShadow dx="0" dy="7" stdDeviation="8" flood-color="#063D24" flood-opacity="0.26"/></filter><filter id="oB" x="-40%" y="-40%" width="180%" height="200%"><feDropShadow dx="0" dy="10" stdDeviation="14" flood-color="#063D24" flood-opacity="0.3"/></filter><filter id="fS" x="-60%" y="-60%" width="220%" height="220%"><feGaussianBlur stdDeviation="9"/></filter></defs><rect x="0" y="0" width="1000" height="360" fill="url(#bg)"/><rect x="0" y="0" width="1000" height="360" fill="url(#day)"/><g filter="url(#oB)" transform="rotate(-13 980 -30)"><rect x="660" y="-190" width="560" height="330" rx="26" fill="url(#board)"/></g><g transform="rotate(-13 980 -30)"><line x1="660" y1="138" x2="1220" y2="138" stroke="#EED27A" stroke-width="2" opacity="0.55"/></g><rect x="0" y="282" width="1000" height="78" fill="url(#sol)"/><line x1="0" y1="282" x2="1000" y2="282" stroke="#C9A227" stroke-width="1.8" opacity="0.8"/><ellipse cx="365" cy="299" rx="200" ry="13" fill="#063D24" opacity="0.3" filter="url(#fS)"/><ellipse cx="612" cy="299" rx="130" ry="13" fill="#063D24" opacity="0.3" filter="url(#fS)"/><g transform="rotate(-2.5 365 172)" filter="url(#oP)"><rect x="150" y="66" width="430" height="212" rx="14" fill="url(#pan)"/></g><g transform="rotate(-2.5 365 172)"><rect x="150" y="66" width="430" height="36" fill="#107C41" opacity="0.1"/><line x1="236" y1="66" x2="236" y2="278" stroke="rgba(23,26,24,0.13)" stroke-width="1.2" opacity="1"/><line x1="322" y1="66" x2="322" y2="278" stroke="rgba(23,26,24,0.13)" stroke-width="1.2" opacity="1"/><line x1="408" y1="66" x2="408" y2="278" stroke="rgba(23,26,24,0.13)" stroke-width="1.2" opacity="1"/><line x1="494" y1="66" x2="494" y2="278" stroke="rgba(23,26,24,0.13)" stroke-width="1.2" opacity="1"/><line x1="150" y1="102" x2="580" y2="102" stroke="rgba(23,26,24,0.13)" stroke-width="1.2" opacity="1"/><line x1="150" y1="146" x2="580" y2="146" stroke="rgba(23,26,24,0.13)" stroke-width="1.2" opacity="1"/><line x1="150" y1="190" x2="580" y2="190" stroke="rgba(23,26,24,0.13)" stroke-width="1.2" opacity="1"/><line x1="150" y1="234" x2="580" y2="234" stroke="rgba(23,26,24,0.13)" stroke-width="1.2" opacity="1"/><text x="193" y="90" fill="#171A18" font-size="17" font-family="system-ui,-apple-system,'Segoe UI',sans-serif" font-weight="600" text-anchor="middle" opacity="0.42">A</text><text x="279" y="90" fill="#171A18" font-size="17" font-family="system-ui,-apple-system,'Segoe UI',sans-serif" font-weight="600" text-anchor="middle" opacity="0.42">B</text><text x="365" y="90" fill="#171A18" font-size="17" font-family="system-ui,-apple-system,'Segoe UI',sans-serif" font-weight="600" text-anchor="middle" opacity="0.42">C</text><text x="451" y="90" fill="#171A18" font-size="17" font-family="system-ui,-apple-system,'Segoe UI',sans-serif" font-weight="600" text-anchor="middle" opacity="0.42">D</text><text x="537" y="90" fill="#171A18" font-size="17" font-family="system-ui,-apple-system,'Segoe UI',sans-serif" font-weight="600" text-anchor="middle" opacity="0.42">E</text><text x="396" y="131" fill="#171A18" font-size="19" font-family="ui-monospace,Menlo,Consolas,monospace" text-anchor="end" opacity="0.66">1 240</text><text x="396" y="175" fill="#171A18" font-size="19" font-family="ui-monospace,Menlo,Consolas,monospace" text-anchor="end" opacity="0.66">980</text><text x="396" y="219" fill="#171A18" font-size="19" font-family="ui-monospace,Menlo,Consolas,monospace" text-anchor="end" opacity="0.66">1 615</text><rect x="322" y="146" width="86" height="44" fill="#107C41" opacity="0.13"/><rect x="322" y="146" width="86" height="44" fill="none" stroke="#107C41" stroke-width="2.6"/><rect x="404" y="186" width="8" height="8" fill="#107C41"/></g><g transform="rotate(2 610 215)" filter="url(#oP)"><rect x="470" y="118" width="282" height="192" rx="14" fill="url(#pan)"/></g><g transform="rotate(2 610 215)"><text x="500" y="154" fill="#0A5231" font-size="22" font-family="ui-monospace,Menlo,Consolas,monospace" font-weight="600" opacity="0.9">+38 %</text><rect x="500" y="230" width="40" height="52" rx="5" fill="url(#accV)"/><rect x="560" y="196" width="40" height="86" rx="5" fill="url(#accV)"/><rect x="620" y="164" width="40" height="118" rx="5" fill="url(#accV)"/><rect x="680" y="136" width="40" height="146" rx="5" fill="url(#accV)"/><rect x="680" y="136" width="40" height="8" rx="4" fill="url(#orG)"/><line x1="492" y1="282" x2="744" y2="282" stroke="rgba(23,26,24,0.3)" stroke-width="1.6" opacity="1"/></g><g transform="rotate(-1 372 60)"><g filter="url(#oC)"><rect x="244" y="36" width="256" height="48" rx="9" fill="#FFFFFF"/></g><rect x="244" y="36" width="256" height="48" rx="9" fill="none" stroke="rgba(23,26,24,0.14)" stroke-width="1.2"/><text x="266" y="68" fill="#171A18" font-size="25" font-family="Georgia,'Times New Roman',serif" font-style="italic" opacity="0.55">fx</text><line x1="302" y1="46" x2="302" y2="74" stroke="rgba(23,26,24,0.18)" stroke-width="1.4" opacity="1"/><text x="318" y="67" fill="#171A18" font-size="21.5" font-family="ui-monospace,Menlo,Consolas,monospace" opacity="0.88">=SOMME(C2:C6)</text></g><clipPath id="clipObj"><rect x="150" y="66" width="430" height="212" rx="14" transform="rotate(-2.5 365 172)"/><rect x="470" y="118" width="282" height="192" rx="14" transform="rotate(2 610 215)"/><rect x="244" y="36" width="256" height="48" rx="9" transform="rotate(-1 372 60)"/></clipPath><g clip-path="url(#clipObj)"><g class="swp"><rect x="-460" y="-140" width="250" height="680" fill="url(#swp)" transform="rotate(17)"/></g></g></svg>